<svg id="Layer_1" data-name="Layer 1" xmlns="http://www.w3.org/2000/svg" viewBox="0 0 192 268.6"><defs><style>.cls-1{fill:#231f20;}</style></defs><polygon class="cls-1" points="123.4 176.08 134.4 176.08 147.49 165.53 112.34 138.26 112.34 110.26 101.34 121.08 101.34 138.26 136.49 165.53 123.4 176.08"/><polygon class="cls-1" points="79.21 184.96 80.5 186.38 84.68 182.59 83.4 181.17 51.6 146.08 50.15 144.47 45.97 148.27 47.42 149.87 79.21 184.96"/><path class="cls-1" d="M35.61,85.16V207.1h122V85.16Zm117,117.8H95.17l3.23-26.88h14.35l13.09-10.55L90.69,138.26v-28L55.47,144.89l28.26,31.19H87.4L84.17,203H73.53l2-16.61L46.21,154l-5.6,5.5V89.3h112Z"/></svg>